HIERARCHY
ROOT Hips
{
	OFFSET 0.00000 0.00000 0.00000
	CHANNELS 6 Xposition Yposition Zposition Zrotation Yrotation Xrotation 
	JOINT LHipJoint
	{
		OFFSET 0 0 0
		CHANNELS 3 Zrotation Yrotation Xrotation
		JOINT LeftUpLeg
		{
			OFFSET 1.98141 -1.79044 0.80905
			CHANNELS 3 Zrotation Yrotation Xrotation
			JOINT LeftLeg
			{
				OFFSET 2.48669 -6.83213 0.00000
				CHANNELS 3 Zrotation Yrotation Xrotation
				JOINT LeftFoot
				{
					OFFSET 2.68940 -7.38907 0.00000
					CHANNELS 3 Zrotation Yrotation Xrotation
					JOINT LeftToeBase
					{
						OFFSET 0.12857 -0.35324 2.34549
						CHANNELS 3 Zrotation Yrotation Xrotation
						End Site
						{
							OFFSET 0.00000 -0.00000 1.19593
						}
					}
				}
			}
		}
	}
	JOINT RHipJoint
	{
		OFFSET 0 0 0
		CHANNELS 3 Zrotation Yrotation Xrotation
		JOINT RightUpLeg
		{
			OFFSET -1.80120 -1.79044 0.80905
			CHANNELS 3 Zrotation Yrotation Xrotation
			JOINT RightLeg
			{
				OFFSET -2.77667 -7.62884 0.00000
				CHANNELS 3 Zrotation Yrotation Xrotation
				JOINT RightFoot
				{
					OFFSET -2.72618 -7.49012 0.00000
					CHANNELS 3 Zrotation Yrotation Xrotation
					JOINT RightToeBase
					{
						OFFSET -0.15954 -0.43820 2.14670
						CHANNELS 3 Zrotation Yrotation Xrotation
						End Site
						{
							OFFSET -0.00000 -0.00000 1.10438
						}
					}
				}
			}
		}
	}
	JOINT LowerBack
	{
		OFFSET 0 0 0
		CHANNELS 3 Zrotation Yrotation Xrotation
		JOINT Spine
		{
			OFFSET -0.00825 2.03905 -0.05153
			CHANNELS 3 Zrotation Yrotation Xrotation
			JOINT Spine1
			{
				OFFSET 0.01521 2.04267 0.00496
				CHANNELS 3 Zrotation Yrotation Xrotation
				JOINT Neck
				{
					OFFSET 0 0 0
					CHANNELS 3 Zrotation Yrotation Xrotation
					JOINT Neck1
					{
						OFFSET 0.04513 1.36240 0.17993
						CHANNELS 3 Zrotation Yrotation Xrotation
						JOINT Head
						{
							OFFSET -0.04116 1.35857 0.01300
							CHANNELS 3 Zrotation Yrotation Xrotation
							End Site
							{
								OFFSET -0.01884 1.44433 -0.01572
							}
						}
					}
				}
				JOINT LeftShoulder
				{
					OFFSET 0 0 0
					CHANNELS 3 Zrotation Yrotation Xrotation
					JOINT LeftArm
					{
						OFFSET 2.95523 0.86449 0.36905
						CHANNELS 3 Zrotation Yrotation Xrotation
						JOINT LeftForeArm
						{
							OFFSET 5.82845 -0.00000 -0.00000
							CHANNELS 3 Zrotation Yrotation Xrotation
							JOINT LeftHand
							{
								OFFSET 3.49691 -0.00000 0.00000
								CHANNELS 3 Zrotation Yrotation Xrotation
								JOINT LeftFingerBase
								{
									OFFSET 0 0 0
									CHANNELS 3 Zrotation Yrotation Xrotation
									JOINT LeftHandIndex1
									{
										OFFSET 0.67500 -0.00000 0.00000
										CHANNELS 3 Zrotation Yrotation Xrotation
										End Site
										{
											OFFSET 0.54420 -0.00000 0.00000
										}
									}
								}
								JOINT LThumb
								{
									OFFSET 0 0 0
									CHANNELS 3 Zrotation Yrotation Xrotation
									End Site
									{
										OFFSET 0.55251 -0.00000 0.55251
									}
								}
							}
						}
					}
				}
				JOINT RightShoulder
				{
					OFFSET 0 0 0
					CHANNELS 3 Zrotation Yrotation Xrotation
					JOINT RightArm
					{
						OFFSET -3.41586 0.85389 0.25405
						CHANNELS 3 Zrotation Yrotation Xrotation
						JOINT RightForeArm
						{
							OFFSET -5.45859 -0.00000 0.00000
							CHANNELS 3 Zrotation Yrotation Xrotation
							JOINT RightHand
							{
								OFFSET -3.58491 -0.00000 0.00000
								CHANNELS 3 Zrotation Yrotation Xrotation
								JOINT RightFingerBase
								{
									OFFSET 0 0 0
									CHANNELS 3 Zrotation Yrotation Xrotation
									JOINT RightHandIndex1
									{
										OFFSET -0.68373 -0.00000 0.00000
										CHANNELS 3 Zrotation Yrotation Xrotation
										End Site
										{
											OFFSET -0.55124 -0.00000 0.00000
										}
									}
								}
								JOINT RThumb
								{
									OFFSET 0 0 0
									CHANNELS 3 Zrotation Yrotation Xrotation
									End Site
									{
										OFFSET -0.55966 -0.00000 0.55966
									}
								}
							}
						}
					}
				}
			}
		}
	}
}
MOTION
Frames: 7
Frame Time: .0083333
0.0804 18.1491 -30.964 0 0 0 0 0 0 -21 0 0 0 0 0 0 0 0 0 0 0 0 0 0 21 0 0 0 0 0 0 0 0 0 0 0 0 0 0 0 0 0 0 0 0 0 0 -16 0 0 21 0 0 11 0 0 0 -8 0 0 0 0 0 0 0 0 0 0 0 0 0 0 0 0 0 0 0 0 8 0 0 0 0 0 0 0 0 0 0 0 0 0 0 0 0 0
0.0804 18.1491 -30.9640 -2.7579 -0.7591 5.0541 0.0000 0.0000 0.0000 -18.7006 -10.3340 -5.9863 1.3306 7.3047 20.6214 0.5416 3.5782 -15.6683 0.2373 -3.1349 -8.6545 0.0000 0.0000 0.0000 19.8866 11.0740 -16.6056 -4.9216 -13.2949 40.4828 -3.7427 2.3396 -36.1427 -0.2575 -3.2646 9.0163 -0.3830 1.4816 -5.6768 0.3759 1.9880 -2.2551 0.7248 0.9967 0.8353 1.3697 0.1270 -5.1919 4.3524 -0.3766 9.3336 1.1902 0.0622 3.9874 -0.0000 0.0000 0.0000 -78.7670 4.7777 38.6139 20.2365 -30.9262 -5.6524 -0.0000 0.0000 -26.0080 44.1750 53.8766 38.1255 -7.1250 0.0000 -0.0000 178.4220 2.3591 1.5123 -0.0000 0.0000 0.0000 80.7389 -7.7224 32.0327 -16.4049 26.0665 -3.8221 0.0000 0.0000 0.7225 -24.1527 47.4663 -18.2854 7.1250 -0.0000 -0.0000 7.6025 19.7192 9.7893
0.1545 18.1465 -30.9711 -2.5377 -0.8274 5.0725 0.0000 0.0000 0.0000 -19.1086 -9.4529 -6.4369 1.3406 7.3310 20.6997 0.5527 2.5984 -15.2279 0.2331 -3.1077 -8.5788 0.0000 0.0000 0.0000 19.2736 10.5173 -17.0158 -4.9656 -13.3450 40.6740 -3.6518 2.2836 -35.6976 -0.1551 -2.5378 6.9945 -0.6256 1.4278 -5.7829 0.4281 1.9291 -2.0696 0.9169 0.9666 1.0759 1.0761 0.2795 -5.6008 4.5967 -0.1747 9.2078 1.3367 0.1649 4.0229 -0.0000 -0.0000 0.0000 -79.0745 4.5637 38.1209 20.1925 -30.8736 -5.6298 -0.0000 0.0000 -25.8683 43.8744 53.7004 37.7711 -7.1250 0.0000 -0.0000 178.4004 2.0872 1.5409 -0.0000 -0.0000 0.0000 80.4209 -7.3013 32.2042 -16.2545 25.8645 -3.7563 0.0000 0.0000 0.7759 -24.2552 47.6187 -18.4089 7.1250 -0.0000 -0.0000 7.5980 19.8921 9.7971
0.2269 18.1377 -30.9820 -2.5301 -0.9518 5.0421 0.0000 0.0000 0.0000 -19.3094 -8.7588 -6.8635 1.3725 7.4141 20.9481 0.5423 2.1467 -14.8549 0.2721 -3.3556 -9.2703 0.0000 0.0000 0.0000 18.9090 10.1682 -17.2828 -5.0094 -13.3943 40.8631 -3.5665 2.8349 -35.1373 -0.1892 -2.8013 7.7261 -0.6966 1.4684 -5.0976 0.4566 1.9836 -2.2756 0.9651 0.9983 0.4784 0.9951 0.3262 -6.2469 4.8480 -0.1632 9.5772 1.4486 0.1944 4.2873 -0.0000 -0.0000 0.0000 -79.1065 4.9134 38.0726 20.2145 -30.8999 -5.6411 -0.0000 0.0000 -25.8162 43.9601 53.7832 37.8837 -7.1250 0.0000 -0.0000 178.3932 2.1930 1.5448 -0.0000 -0.0000 0.0000 80.4115 -7.4130 32.0577 -16.1400 25.7102 -3.7065 0.0000 0.0000 0.8043 -24.2606 47.5174 -18.3855 7.1250 -0.0000 -0.0000 7.5679 19.7965 9.7502
0.2990 18.1274 -30.9954 -2.4044 -1.1127 5.0029 0.0000 0.0000 0.0000 -19.6468 -8.3255 -7.1498 1.3999 7.4846 21.1592 0.5448 1.7957 -14.7094 0.2863 -3.4413 -9.5100 0.0000 0.0000 0.0000 18.4155 9.7568 -17.5930 -5.0554 -13.4459 41.0613 -3.4475 3.7551 -34.3302 -0.2981 -3.5105 9.7033 -0.6482 1.6085 -5.4074 0.2309 2.1714 -2.2416 0.7274 1.0896 0.6923 1.2940 0.3653 -5.1157 5.1433 -0.1025 8.9042 1.4768 0.2207 3.8212 -0.0000 -0.0000 0.0000 -78.7209 5.1081 38.4016 20.2085 -30.8928 -5.6380 -0.0000 0.0000 -25.9333 43.8876 54.0360 37.9026 -7.1250 0.0000 -0.0000 178.2635 2.3844 1.6635 -0.0000 -0.0000 0.0000 80.7428 -7.5975 31.5841 -16.0791 25.6278 -3.6801 0.0000 0.0000 1.0591 -24.3280 47.6223 -18.4682 7.1250 -0.0000 -0.0000 7.5664 19.9148 9.7576
0.3628 18.1220 -31.0088 -2.3882 -1.2596 5.0820 0.0000 0.0000 0.0000 -19.8242 -7.8182 -7.6212 1.4294 7.5599 21.3850 0.5513 1.4574 -14.6289 0.3639 -3.8751 -10.7255 0.0000 0.0000 0.0000 18.0754 9.6692 -17.9531 -5.1055 -13.5017 41.2766 -3.3750 4.3561 -33.8375 -0.3997 -4.0593 11.2435 -0.9097 1.5700 -5.4513 0.4119 2.1318 -2.1134 1.0608 1.0703 0.8323 1.1022 0.4102 -5.4065 5.1261 -0.0244 8.7320 1.5091 0.2521 3.8161 -0.0000 0.0000 0.0000 -79.0776 4.9189 37.8573 20.0288 -30.6770 -5.5460 -0.0000 0.0000 -25.3379 44.2668 54.7215 38.5101 -7.1250 0.0000 -0.0000 178.0912 3.1250 1.8030 -0.0000 0.0000 0.0000 80.4195 -7.2910 31.6303 -16.1024 25.6592 -3.6902 0.0000 0.0000 1.1468 -24.4630 47.6100 -18.5729 7.1250 -0.0000 -0.0000 7.5026 19.9388 9.6760
0.4279 18.1145 -31.0183 -2.4030 -1.4094 5.0496 0.0000 0.0000 0.0000 -20.0040 -7.2260 -7.9824 1.4569 7.6291 21.5930 0.5519 1.1120 -14.4800 0.4251 -4.1845 -11.5963 0.0000 0.0000 0.0000 17.7608 9.1968 -18.3514 -5.1638 -13.5659 41.5255 -3.2570 4.9104 -33.1162 -0.4803 -4.4445 12.3307 -1.0363 1.6113 -5.3702 0.4625 2.1926 -1.8777 1.1892 1.0988 1.0210 1.3027 0.3271 -6.0757 4.8781 -0.1447 8.5641 1.3874 0.1934 3.8894 -0.0000 -0.0000 0.0000 -79.0794 4.5764 37.6991 19.8822 -30.5002 -5.4715 -0.0000 0.0000 -24.9532 44.7817 55.8493 39.3957 -7.1250 0.0000 -0.0000 177.7598 4.2866 2.0681 -0.0000 -0.0000 0.0000 80.3521 -6.8807 31.2867 -16.0998 25.6558 -3.6891 0.0000 0.0000 1.2778 -24.4500 47.8490 -18.6282 7.1250 -0.0000 -0.0000 7.5744 20.1638 9.7874
